<svg xmlns="http://www.w3.org/2000/svg" id="Capa_1" data-name="Capa 1" viewBox="0 0 595.3 370.8"><defs><style>      .cls-1 {        fill: none;      }      .cls-1, .cls-2 {        stroke: #02adbf;        stroke-miterlimit: 10;        stroke-width: 1.5px;      }      .cls-2, .cls-3 {        fill: #02adbf;      }      .cls-3, .cls-4 {        stroke-width: 0px;      }      .cls-4 {        fill: #fff;      }    </style></defs><path class="cls-3" d="M323.6,35.3v196.8c0,.5-.3,1-.8,1.2l-207.7,96c-1.2.6-2.4-.9-1.6-2L321.2,34.5c.7-1,2.4-.5,2.4.8Z"></path><path class="cls-3" d="M331.8,35.4v196.7c0,.5.3,1,.8,1.2l207.6,95.9c1.3.6,2.5-.9,1.7-2L334.3,34.6c-.8-1.1-2.5-.5-2.5.8Z"></path><path class="cls-3" d="M116.9,336.8l209.9-98.5c.4-.2.9-.2,1.3,0l209.3,98.3c1.5.7,1,2.9-.7,2.9l-419.2.2c-1.7,0-2.2-2.2-.7-2.9Z"></path><circle class="cls-4" cx="328.7" cy="233" r="54"></circle><g><rect class="cls-3" x="298.5" y="202.9" width="60.4" height="60.1"></rect><g><path class="cls-4" d="M313.4,258.4c-.9,0-1.7-.2-2.3-.5-.7-.3-1.2-.7-1.7-1.2-.4-.5-.8-1.1-1-1.8-.2-.6-.3-1.3-.3-2s.1-1.3.3-2c.2-.7.5-1.2,1-1.8.4-.5,1-.9,1.7-1.3.7-.3,1.5-.5,2.4-.5s1.3,0,1.8.3c.5.2.9.4,1.3.7.3.3.6.6.8.9.2.3.4.6.5.9.1.3.2.6.3.9h-1.7c0-.3-.2-.5-.3-.7-.1-.2-.3-.4-.5-.6-.2-.2-.5-.4-.8-.5-.3-.1-.8-.2-1.3-.2s-1.1.1-1.6.3c-.5.2-.8.5-1.1.9-.3.4-.5.8-.7,1.3-.1.5-.2,1-.2,1.4s0,1,.2,1.5c.2.5.4.9.7,1.3.3.4.7.7,1.1.9.4.2,1,.3,1.6.3.9,0,1.7-.3,2.2-.8s.9-1.2.9-2.1h-3.1v-1.4h4.8v.8c0,1.1-.2,2-.6,2.8-.4.7-1,1.3-1.7,1.7-.7.4-1.5.6-2.4.6Z"></path><path class="cls-4" d="M319.5,258.3v-7.6h1.7v1h0c.1-.3.4-.6.7-.8.3-.2.8-.4,1.4-.4s.4,0,.7,0v1.6c-.3,0-.5,0-.7,0-.7,0-1.2.2-1.6.6-.4.4-.5,1-.5,1.8v3.8h-1.7Z"></path><path class="cls-4" d="M328.4,258.4c-.9,0-1.6-.2-2.2-.6-.6-.4-1-.9-1.3-1.5s-.4-1.2-.4-1.9.1-1.3.4-1.9.7-1.1,1.3-1.5c.6-.4,1.3-.6,2.2-.6s1.6.2,2.1.6c.6.4,1,.9,1.3,1.5.3.6.4,1.2.4,1.9s-.2,1.3-.4,1.9c-.3.6-.7,1.1-1.3,1.5-.6.4-1.3.6-2.1.6ZM328.4,257c.5,0,.9-.1,1.2-.4.3-.2.6-.6.7-.9.2-.4.3-.8.3-1.3s0-.9-.3-1.3c-.2-.4-.4-.7-.7-.9s-.7-.4-1.2-.4-.9.1-1.2.4-.6.6-.7.9-.3.8-.3,1.3,0,.9.3,1.3.4.7.7.9c.3.2.7.4,1.2.4Z"></path><path class="cls-4" d="M336.3,258.4c-.8,0-1.4-.2-1.8-.7-.4-.5-.7-1.1-.7-1.9v-5.1h1.7v4.9c0,.5.1.8.4,1.1.2.3.6.4,1,.4s.8-.1,1-.3.4-.5.6-.8c.1-.3.2-.7.2-1v-4.2h1.7v7.6h-1.7v-1.1h0c0,.1-.2.3-.4.5s-.4.4-.7.5-.7.2-1.1.2Z"></path><path class="cls-4" d="M342,261.1v-10.5h1.7v1.1h0c0-.1.2-.3.4-.5.2-.2.5-.4.8-.5.3-.2.7-.2,1.2-.2s1.1.1,1.5.3c.4.2.8.5,1.1.9.3.4.5.8.6,1.3.1.5.2,1,.2,1.4s0,1-.2,1.4c-.1.5-.4.9-.6,1.3-.3.4-.7.7-1.1.9-.4.2-.9.3-1.5.3s-.9,0-1.2-.2c-.3-.2-.6-.3-.8-.5-.2-.2-.3-.4-.4-.5h0v4h-1.7ZM343.6,254.5c0,.4,0,.8.2,1.2.2.4.4.7.7,1,.3.3.7.4,1.2.4s.9-.1,1.2-.4c.3-.3.6-.6.7-1,.2-.4.2-.8.2-1.2s0-.8-.2-1.2c-.2-.4-.4-.7-.7-1-.3-.3-.7-.4-1.2-.4s-.9.1-1.2.4c-.3.3-.6.6-.7,1-.2.4-.2.8-.2,1.2Z"></path></g><path class="cls-4" d="M302.9,203.4s-1,9.1,7.3,10.7c7.4,1.5,9.8,2.8,9.4,5.7s-2.4,3.1-5.6,3c-4.2,0-8.2-3.9-8.2-3.9l-4.2,7s4.5,4.4,14.2,4.4,14.2-6.8,14.2-12.2-4.4-9.2-10-10.4c-5.6-1.2-7-2.1-7-4.4h-10.1Z"></path><polygon class="cls-4" points="334.6 203.4 334.6 229.2 356.5 229.2 356.5 221.7 344.5 221.7 344.5 203.4 334.6 203.4"></polygon></g><g><path class="cls-4" d="M230,237.6l-11.3-8,1.9-2.7,9.1,6.4,3.4-4.8,2.2,1.6-5.3,7.5Z"></path><path class="cls-4" d="M240.3,223.5c-.7,1-1.4,1.7-2.3,2.1-.8.5-1.7.7-2.6.6s-1.8-.4-2.6-1l-7.3-5.2,1.9-2.7,7.1,5c.4.3.8.4,1.2.5.4,0,.8,0,1.2-.2.4-.2.7-.5,1-.9.3-.4.5-.8.5-1.3,0-.4,0-.9-.2-1.2-.2-.4-.5-.7-.9-1l-7.1-5,1.9-2.7,7.3,5.2c.8.6,1.4,1.3,1.8,2.1s.4,1.7.3,2.7c-.2,1-.6,1.9-1.3,2.9Z"></path><path class="cls-4" d="M245.2,216.3l-1.7-1.2-2.8-8.6c-.2-.6-.4-1.2-.5-1.9-.2-.7-.3-1.3-.4-2l1,.4c-.3.5-.7,1.1-1,1.6-.4.5-.7,1-1.1,1.6l-2.6,3.6-2.2-1.6,6.3-8.9,1.7,1.2,2.7,8.5c.2.6.4,1.3.5,1.9.2.7.3,1.4.5,2l-1-.4c.3-.6.7-1.1,1.1-1.7.4-.5.8-1.1,1.1-1.6l2.5-3.5,2.2,1.6-6.3,9Z"></path><path class="cls-4" d="M256.1,200.8l-11.3-8,3.3-4.6c.6-.9,1.3-1.5,2-1.9.7-.4,1.5-.6,2.3-.5.8,0,1.6.4,2.4.9s1.3,1.2,1.6,1.9c.3.7.4,1.5.2,2.4-.2.8-.6,1.7-1.2,2.6l-2.1,2.9-2.1-1.5,1.8-2.5c.3-.4.5-.8.6-1.2,0-.4,0-.7,0-1-.1-.3-.4-.6-.7-.8-.3-.2-.7-.4-1-.4s-.7,0-1,.3c-.3.2-.6.5-.9.9l-1,1.5,9.1,6.4-1.9,2.7ZM260.5,194.6l-7.1-.9,2-2.9,7.1.9-2.1,2.9Z"></path><path class="cls-4" d="M267.6,184.8c-.7,1-1.6,1.8-2.6,2.3-1,.5-2.1.7-3.3.5-1.2-.1-2.4-.6-3.6-1.5-1.2-.9-2.1-1.9-2.7-2.9s-.7-2.2-.6-3.3.5-2.2,1.3-3.2c.7-1,1.6-1.8,2.6-2.2s2.1-.7,3.3-.5,2.4.6,3.7,1.5c1.2.9,2.1,1.9,2.6,2.9s.7,2.2.6,3.3c-.1,1.1-.5,2.2-1.3,3.2ZM265.3,183.2c.4-.5.6-1.1.6-1.7,0-.6-.2-1.2-.5-1.7-.4-.6-.9-1.1-1.6-1.6-.7-.5-1.4-.9-2.1-1s-1.3-.1-1.8,0c-.5.2-1,.6-1.4,1.1-.4.5-.6,1.1-.6,1.7,0,.6.2,1.2.5,1.7.4.6.9,1.1,1.7,1.7.7.5,1.4.9,2.1,1s1.3.1,1.8,0,1-.6,1.4-1.1Z"></path><path class="cls-4" d="M275.5,173.8c-.9,1.2-1.9,2-3,2.2-1.1.2-2.3,0-3.4-.9l-.7-.5,1.9-2.6.8.5c.5.3.9.5,1.3.4.4,0,.7-.3,1-.7.3-.4.4-.8.3-1.2,0-.4-.4-.8-.8-1.1l-7.9-5.6,1.9-2.7,7.8,5.5c1.2.8,1.8,1.8,2,2.9.1,1.1-.2,2.3-1.1,3.5Z"></path><path class="cls-4" d="M279.1,168.2l-8.6-11.8,2.5-3.6,14,4.1-2.1,3-6-1.9c-1-.3-2-.7-3.1-1.1-1.1-.4-2.2-.8-3.4-1.3l.4-.6c.8.9,1.6,1.8,2.4,2.7.8.9,1.5,1.7,2.1,2.5l3.9,5-2.1,3ZM278.6,164l-2.1-1.5,4.3-6.1,2.1,1.5-4.3,6.1Z"></path></g><g><path class="cls-4" d="M377.2,161.3c-.7-1-1.1-2.1-1.3-3.2-.1-1.1,0-2.2.6-3.3.5-1.1,1.4-2.1,2.6-2.9,1.2-.9,2.5-1.4,3.7-1.5s2.3,0,3.3.5c1,.5,1.9,1.2,2.6,2.3.7,1,1.1,2.1,1.3,3.2s0,2.2-.6,3.3c-.5,1.1-1.4,2.1-2.6,2.9-1.2.9-2.4,1.4-3.6,1.5s-2.3,0-3.3-.5c-1-.5-1.9-1.2-2.6-2.2ZM379.5,159.7c.4.5.9.9,1.4,1.1.5.2,1.1.2,1.8,0,.7-.2,1.4-.5,2.1-1,.7-.5,1.3-1.1,1.7-1.7.4-.6.5-1.2.5-1.7,0-.6-.2-1.1-.6-1.7-.4-.5-.9-.9-1.4-1.1-.5-.2-1.2-.2-1.8,0-.7.2-1.4.5-2.1,1-.7.5-1.3,1.1-1.6,1.7-.4.6-.5,1.2-.5,1.7s.2,1.1.6,1.7Z"></path><path class="cls-4" d="M381.6,167.3h10.1s-2,1.4-2,1.4l3.5-9,2.2,3.1-.9,2.3c-.2.4-.4.8-.6,1.2-.2.4-.4.7-.6,1-.2.3-.4.6-.5,1l-.5-.8c.4,0,.7,0,1.1-.1.4,0,.7-.1,1.1-.2.4,0,.8-.1,1.3-.1h2.5c0-.1,2.1,2.9,2.1,2.9l-9.4.3,1.9-1.4-3.5,9.4-2.3-3.2,1.2-2.9c.2-.4.3-.7.4-1,.1-.3.3-.5.4-.8.1-.2.2-.5.4-.8l.3.4c-.3,0-.6,0-.8,0-.3,0-.6,0-.9,0-.3,0-.7,0-1.1,0h-3.2c0,0-2.2-3-2.2-3Z"></path><path class="cls-4" d="M404,174.9l-11.3,8-1.9-2.7,11.3-8,1.9,2.7ZM403.5,171.9l3.2-.6,1.7,2.4h-3.6s-1.3-1.8-1.3-1.8Z"></path><path class="cls-4" d="M398,190.6c-.8-1.1-1.2-2.2-1.3-3.3-.1-1.1.1-2.3.7-3.3s1.4-2,2.6-2.9c1.2-.9,2.4-1.4,3.7-1.5,1.2-.1,2.3,0,3.4.5,1,.5,1.9,1.2,2.6,2.2.5.7.8,1.3,1,2s.3,1.4.3,2.1c0,.7-.2,1.3-.5,1.9-.3.6-.7,1.1-1.2,1.6l-1.9-2.7c.2-.2.3-.5.4-.7,0-.3.2-.5.2-.8,0-.3,0-.6-.1-.8s-.2-.6-.4-.8c-.4-.6-.9-.9-1.4-1.2-.6-.2-1.2-.2-1.8-.1-.7.1-1.4.5-2.1,1-.7.5-1.3,1.1-1.6,1.6-.4.6-.5,1.2-.5,1.8,0,.6.2,1.2.6,1.8.4.5.7.9,1.2,1.1.4.2.8.3,1.3.3.4,0,.9-.2,1.3-.5l.3.6-2-2.8,2-1.4,3.5,4.9-1.5,1.1c-1,.7-2,1.1-3,1.2-1,0-2-.1-2.9-.6-.9-.5-1.7-1.2-2.4-2.2Z"></path><path class="cls-4" d="M403.3,197.8l11.3-8,5.6,7.9-2.2,1.6-3.7-5.3-2.3,1.6,3.5,4.9-2.2,1.5-3.5-4.9-2.4,1.7,3.7,5.3-2.2,1.6-5.6-7.9Z"></path><path class="cls-4" d="M410.6,208l11.3-8,2.1,2.9-2.9,6.8c-.2.4-.4.8-.6,1.3-.2.4-.5.9-.7,1.4-.3.5-.6,1-1,1.6h-.4c.4-.5.8-.8,1.3-1.2.5-.4.9-.8,1.4-1.1.5-.4.8-.6,1.2-.9l4.8-3.4,1.9,2.7-11.3,8-2.1-2.9,2.6-6.2c.2-.5.4-1,.7-1.5.2-.5.5-1,.8-1.5.3-.5.6-1.2,1-1.8l.3.3c-.5.4-1,.8-1.5,1.2-.5.4-.9.7-1.3,1.1-.4.3-.7.6-1,.8l-4.7,3.3-1.9-2.7Z"></path><path class="cls-4" d="M423,225.7c-.7-1-1.1-2.1-1.3-3.2-.1-1.1,0-2.2.6-3.3s1.4-2.1,2.6-2.9c1.2-.9,2.5-1.4,3.7-1.5,1.2-.1,2.3,0,3.3.5,1,.5,1.9,1.2,2.6,2.3.7,1,1.1,2.1,1.3,3.2.1,1.1,0,2.2-.6,3.3-.5,1.1-1.4,2.1-2.6,2.9-1.2.9-2.4,1.4-3.6,1.5-1.2.1-2.3,0-3.3-.5-1-.5-1.9-1.2-2.6-2.2ZM425.3,224.1c.4.5.9.9,1.4,1.1.5.2,1.1.2,1.8,0,.7-.2,1.4-.5,2.1-1,.7-.5,1.3-1.1,1.7-1.7.4-.6.5-1.2.5-1.7,0-.6-.2-1.1-.6-1.7s-.9-.9-1.4-1.1c-.5-.2-1.1-.2-1.8,0-.7.2-1.4.5-2.1,1-.7.5-1.3,1.1-1.6,1.7s-.5,1.2-.5,1.7c0,.6.2,1.1.6,1.7Z"></path></g><g><path class="cls-4" d="M265.3,319.4c-1.2,0-2.4-.3-3.4-.8-1-.6-1.8-1.4-2.3-2.4-.6-1.1-.9-2.3-.9-3.8s.3-2.8.9-3.9c.6-1.1,1.4-1.9,2.4-2.4,1-.6,2.1-.8,3.3-.8s1.6.1,2.3.3c.7.2,1.3.6,1.9,1,.5.4,1,1,1.3,1.6.3.6.6,1.3.7,2.2h-3.3c0-.3-.2-.7-.3-.9-.2-.3-.3-.5-.6-.7-.2-.2-.5-.3-.8-.4-.3-.1-.6-.2-1-.2-.7,0-1.3.2-1.8.5-.5.3-.9.8-1.1,1.4-.3.6-.4,1.4-.4,2.3s.1,1.7.4,2.3c.3.6.6,1.1,1.1,1.4.5.3,1.1.5,1.7.5s.7,0,1-.2c.3-.1.6-.2.8-.4s.4-.4.6-.7c.2-.3.3-.6.3-.9h3.3c0,.7-.3,1.3-.6,1.9-.3.6-.7,1.2-1.2,1.6-.5.5-1.1.9-1.9,1.2-.7.3-1.5.4-2.5.4Z"></path><path class="cls-4" d="M274.1,319.2v-13.8h5.7c1,0,1.9.2,2.7.6.8.4,1.3.9,1.8,1.6.4.7.6,1.5.6,2.5s-.2,1.8-.6,2.4c-.4.7-1,1.2-1.8,1.5-.8.4-1.7.5-2.8.5h-3.6v-2.6h3.1c.5,0,.9,0,1.3-.2.3-.1.6-.3.8-.6.2-.3.3-.6.3-1.1s0-.8-.3-1.1c-.2-.3-.4-.5-.8-.6-.3-.1-.8-.2-1.3-.2h-1.8v11.2h-3.3ZM281.7,319.2l-3.3-6.3h3.5l3.4,6.3h-3.6Z"></path><path class="cls-4" d="M290.9,305.3v13.8h-3.3v-13.8h3.3Z"></path><path class="cls-4" d="M300.2,319.4c-1.2,0-2.4-.3-3.4-.8-1-.6-1.8-1.4-2.4-2.4-.6-1.1-.9-2.3-.9-3.8s.3-2.8.9-3.9c.6-1.1,1.4-1.9,2.4-2.4,1-.6,2.1-.8,3.4-.8s2.4.3,3.3.8c1,.6,1.8,1.4,2.4,2.4.6,1.1.9,2.3.9,3.9s-.3,2.8-.9,3.8c-.6,1.1-1.4,1.9-2.4,2.4-1,.6-2.1.8-3.3.8ZM300.2,316.5c.7,0,1.2-.2,1.7-.5.5-.3.9-.8,1.1-1.4.3-.6.4-1.4.4-2.3s-.1-1.7-.4-2.3-.6-1.1-1.1-1.4c-.5-.3-1.1-.5-1.7-.5s-1.2.2-1.7.5c-.5.3-.9.8-1.1,1.4-.3.6-.4,1.4-.4,2.3s.1,1.7.4,2.3c.3.6.6,1.1,1.1,1.4.5.3,1.1.5,1.7.5Z"></path><path class="cls-4" d="M308.3,308v-2.7h11.6v2.7h-4.2v11.1h-3.3v-11.1h-4.2Z"></path><path class="cls-4" d="M322.5,319.2v-13.8h9.8v2.7h-6.5v2.8h6v2.6h-6v2.9h6.5v2.7h-9.7Z"></path><path class="cls-4" d="M335.1,319.2v-13.8h5.7c1,0,1.9.2,2.7.6.8.4,1.3.9,1.8,1.6s.6,1.5.6,2.5-.2,1.8-.6,2.4c-.4.7-1,1.2-1.8,1.5-.8.4-1.7.5-2.8.5h-3.6v-2.6h3.1c.5,0,.9,0,1.3-.2.3-.1.6-.3.8-.6.2-.3.3-.6.3-1.1s0-.8-.3-1.1c-.2-.3-.4-.5-.8-.6s-.8-.2-1.3-.2h-1.8v11.2h-3.3ZM342.7,319.2l-3.3-6.3h3.5l3.4,6.3h-3.6Z"></path><path class="cls-4" d="M347.9,319.2l4.6-13.8h4.4l4.8,13.8h-3.7l-1.9-6c-.3-1-.6-2.1-.9-3.2-.3-1.1-.6-2.3-.9-3.5h.8c-.3,1.2-.6,2.4-.8,3.5-.3,1.1-.6,2.2-.8,3.2l-1.9,6h-3.6ZM351,316.3v-2.5h7.5v2.5h-7.5Z"></path><path class="cls-4" d="M364,319.2v-13.8h5.7c1,0,1.9.2,2.7.6.8.4,1.3,1,1.8,1.7.4.7.6,1.5.6,2.5s-.2,1.8-.6,2.5c-.4.7-1,1.3-1.8,1.6-.8.4-1.7.6-2.8.6h-3.6v-2.6h3.1c.5,0,.9,0,1.3-.3.3-.2.6-.4.8-.7.2-.3.3-.7.3-1.1s0-.8-.3-1.1c-.2-.3-.4-.5-.8-.7s-.8-.3-1.3-.3h-1.8v11.1h-3.3Z"></path><path class="cls-4" d="M380.6,305.3v13.8h-3.3v-13.8h3.3Z"></path><path class="cls-4" d="M382.9,319.2l4.6-13.8h4.4l4.8,13.8h-3.7l-1.9-6c-.3-1-.6-2.1-.9-3.2-.3-1.1-.6-2.3-.9-3.5h.8c-.3,1.2-.6,2.4-.8,3.5-.3,1.1-.6,2.2-.8,3.2l-1.9,6h-3.6ZM386.1,316.3v-2.5h7.5v2.5h-7.5Z"></path></g><g><g><path class="cls-3" d="M144.2,114.7c0-.8-.7-1.2-1.5-1.5s-1.9-.5-2.8-.7c-2.5-.6-3.3-1.8-3.3-3.5,0-2.7,1.8-4.1,4.9-4.1,3,0,4.5,1.3,4.7,4h-1.4c-.5,0-.9-.3-1.2-.8-.4-.7-1.2-1.1-2.3-1.1-1.3,0-2.1.5-2.2,1.5,0,.8.9,1.4,2.5,1.8.9.2,2,.5,3,.9,1.4.5,2.1,1.5,2.1,3.2,0,2.6-1.7,4-4.9,4s-5.4-1.3-5.5-4.2h2.5c0,1.4,1.2,2,2.8,2s2.6-.6,2.6-1.6Z"></path><path class="cls-3" d="M156.3,113.1c0,3.5-1.5,5.2-4.5,5.2s-4.5-1.7-4.5-5.2,1.5-5.1,4.2-5.1,4.7,1.7,4.7,5.1ZM149.8,113.3c0,2,.7,2.9,1.9,2.9s1.9-1,1.9-3c0-2-.6-3.1-1.9-3.1s-2,1.2-2,3.2Z"></path><path class="cls-3" d="M164.1,118.1c-.8,0-1.2-.5-1.2-1.3v-5c0-1-.6-1.7-1.7-1.7s-1.8.7-1.8,1.7v6.3h-2.5v-5.8c0-2.9,1.5-4.2,4.3-4.2s4.2,1.4,4.2,4.1v5.9h-1.3Z"></path><path class="cls-3" d="M173.1,118.1c-.8,0-1.2-.5-1.2-1.3v-5.2c0-1-.6-1.6-1.7-1.6s-1.7.5-1.7,1.6v6.4h-2.5v-5.9c0-2.9,1.4-4.3,4.2-4.3s4.2,1.4,4.2,4.3v5.9h-1.3Z"></path><path class="cls-3" d="M179.4,118.3c-3,0-4.5-1.9-4.5-5.3s1.5-5,4.5-5.1c3.1,0,4.6,1.9,4.4,5.8h-6.4c0,1.5.7,2.5,2,2.5s1.4-.2,1.9-.7c.2-.2.5-.4.8-.4h1.8c-.5,2.1-2.1,3.1-4.6,3.1ZM177.6,112.2h3.9c-.1-1.3-.9-2.1-2-2.1s-1.8.8-2,2.1Z"></path><path class="cls-3" d="M191.9,118.1c-.8,0-1.2-.5-1.2-1.3v-4.8c0-1-.4-1.9-1.7-1.9s-1.9.9-1.9,1.9v6.1h-2.5v-5.9c0-2.6,1.4-4.1,4.2-4.1s4.4,1.2,4.4,4.1v5.9h-1.3Z"></path><path class="cls-3" d="M197.6,105.5h1.3v10.5l5.7-.3v1.7c0,.3-.3.6-.6.6h-7.7v-11.2c0-.7.6-1.4,1.3-1.4Z"></path><path class="cls-3" d="M207.9,110.7h-2.5c.3-1.9,1.5-2.6,3.8-2.6s4.2,1,4.2,2.6v3.4c0,2.8-1.6,4-4.3,4.2-2.4.2-4-.9-4-3.1,0-2.4,1.7-2.9,4.2-3.1,1.1-.1,1.6-.6,1.6-1.2,0-.6-.6-.9-1.6-.9s-1.4.2-1.5.7ZM211,114v-.9c-.6.2-1.2.6-2,.7-1,.2-1.6.5-1.6,1.3,0,.8.6,1.3,1.4,1.3,1.4,0,2.2-.9,2.2-2.4Z"></path><path class="cls-3" d="M221.1,118.1c-.8,0-1.2-.5-1.2-1.3v-5.2c0-1-.6-1.6-1.7-1.6s-1.7.5-1.7,1.6v6.4h-2.5v-5.9c0-2.9,1.2-4.1,4.1-4.1s4.3,1.3,4.3,4.1v5.9h-1.3Z"></path><path class="cls-3" d="M232,106.5l.2,7.6c0,3-1.7,4.1-4.8,4.1-3,0-4.4-1.7-4.4-5.1s1.3-5.2,3.8-5.2,2.3.6,3,1.6v-4.3h1c1,0,1.3.4,1.3,1.1ZM225.4,113.1c0,2,.7,3.3,2.1,3.3s2.3-1.2,2.3-3.3c0-1.9-.9-2.9-2.2-2.9s-2,.9-2.1,2.9Z"></path></g><g><path class="cls-3" d="M84.8,83.4h-9.6v-18.8c0-1.2,1-2.3,2.2-2.3h7.8c4,0,6.6,1.6,6.6,5.3s-.9,3.6-2.5,4.4c2.1.8,3.3,2.2,3.3,5,0,4.4-3.1,6.4-7.7,6.4ZM84.3,65.9h-4.8v4.5h4.8c1.7,0,3.1-.5,3.1-2.3s-1.2-2.2-3.2-2.2ZM84.5,74h-5v5.5h5c2.1,0,3.4-.6,3.4-2.7s-1.3-2.8-3.5-2.8Z"></path><path class="cls-3" d="M98.2,62.3c1.4,0,2,.7,2,2v1.2h-4.1v-3.2h2.1ZM98.2,67c1.3,0,2,.7,2,2v14.4h-4.1v-16.4h2.1Z"></path><path class="cls-3" d="M118.9,75.2c0,5.6-2.5,8.5-7.5,8.5s-7.4-2.9-7.4-8.5,2.5-8.5,7.4-8.5,7.5,2.8,7.5,8.5ZM108.1,75.2c0,3.2,1.1,4.8,3.2,4.8s3.2-1.7,3.2-4.9c0-3.2-1.1-4.8-3.2-4.8s-3.3,1.6-3.3,4.9Z"></path><path class="cls-3" d="M130,70.4c-2.5,0-3.5,2-3.5,4.6v8.4h-4.1v-21.1h2.1c1.4,0,2,.7,2,2.1v4.9c2.1-2.4,4.7-3.1,7.8-2,2.3.8,3.4,3,3.3,6.6v9.5h-4.1v-8.4c0-2.8-1.1-4.6-3.4-4.6Z"></path><path class="cls-3" d="M145.5,71.2h-4.1c.5-3,2.6-4.5,6.4-4.5s6.8,1.5,6.9,4.5v5.6c0,4.5-2.7,6.5-7.2,6.9-3.9.3-6.7-1.5-6.7-5.2,0-3.9,2.9-5,7.1-5.4,1.8-.2,2.7-.7,2.7-1.6,0-.9-1-1.4-2.7-1.4s-2.3.4-2.5,1.1ZM150.7,76.6v-1.5c-1,.4-2.1.7-3.3,1-1.6.3-2.5,1.1-2.5,2.3,0,1.3.8,1.9,2.1,1.9,2.3,0,3.7-1.4,3.7-3.7Z"></path><path class="cls-3" d="M165.7,83.8c-5,0-7.5-2.9-7.6-8.5,0-5.6,2.5-8.4,7.6-8.5,4,0,6.3,1.8,7,5.3h-4.5c-.5-1.1-1.4-1.7-2.7-1.7-2.2,0-3.3,1.6-3.3,4.9s1.1,4.9,3.4,4.9c1,0,1.8-.4,2.5-1.2.4-.4.9-.6,1.4-.6h3.1c-.7,3.4-3.2,5.5-7,5.4Z"></path><path class="cls-3" d="M180.6,64.3v9.1l5.1-5.8h5l-5.7,6.1,5.7,9.7h-5l-2.9-5.4c-.5-.9-1.1-1.4-1.6-1.4-.4,0-.7.4-.7.8v6h-4.1v-21.1h2.1c1.1,0,2,.9,2,2Z"></path><path class="cls-3" d="M195.3,62.3c1.4,0,2,.7,2,2v1.2h-4.1v-3.2h2.1ZM195.3,67c1.3,0,2,.7,2,2v14.4h-4.1v-16.4h2.1Z"></path><path class="cls-3" d="M213,83.4c-1.4,0-2-.7-2-2v-8.4c0-1.7-1-2.5-2.9-2.5s-2.8.8-2.8,2.5v10.5h-4.2v-9.7c0-4.7,2.4-7,7-7s7,2.3,7,7v9.7h-2.1Z"></path><path class="cls-3" d="M218.3,75.2c0-5.5,2.5-8.2,7.6-8.3,5.1,0,7.7,2.4,7.7,7.3v9.7c0,4.1-2.6,6.2-7.9,6.3-3.7,0-6.1-1.7-7-5.2h4.6c.3,1.2,1.2,1.7,2.9,1.7s3.3-1.3,3.3-3.8c0,0,0,0,0-1.7-1.1,1.6-2.6,2.4-4.7,2.4-4.4,0-6.5-2.9-6.5-8.5ZM229.5,75.3c0-3.3-1.1-5-3.5-5s-3.5,1.6-3.5,5c0,3.2,1.2,4.7,3.4,4.7s3.4-1.6,3.5-4.7Z"></path></g><g><path class="cls-3" d="M121.3,112.8c.4-.6,1-.9,1.7-.9,1.6,0,2.4,1.1,2.4,3.2s-.9,3.1-2.8,3.1c-1.9,0-2.9-.9-2.9-2.7v-5.2h.8c.5,0,.8.3.8.8v1.8ZM121.3,115c0,1.2.4,1.9,1.3,1.9s1.3-.6,1.3-1.9c0-1.2-.5-1.8-1.3-1.8s-1.3.6-1.3,1.8Z"></path><path class="cls-3" d="M127.6,119.2c.8,0,1.1-.4.9-1.2l-2.1-6h1.7l1.2,4.2,1.1-3.7c0-.4.3-.5.7-.5h1.1l-2.4,7.1c-.4,1-.7,1.3-2,1.3s-.6,0-.6,0v-1.3h.4Z"></path></g><circle class="cls-1" cx="46.3" cy="96.7" r="20"></circle><polygon class="cls-2" points="32.5 96.8 36 86.4 46.4 82.7 57 86.5 60.4 96.8 56.9 107.3 46.4 110.7 36 107.2 32.5 96.8"></polygon><polyline class="cls-1" points="42.5 96.3 68.4 117.1 82.9 101.2 96.9 125 107.6 96.3 233.1 96.3"></polyline><circle class="cls-3" cx="43.3" cy="96.2" r="1.8"></circle><circle class="cls-3" cx="82.9" cy="101.1" r="1.8"></circle><circle class="cls-3" cx="68.4" cy="116.6" r="1.8"></circle><circle class="cls-3" cx="96.7" cy="125.2" r="1.8"></circle><circle class="cls-3" cx="107.9" cy="96.2" r="1.8"></circle></g></svg>