<svg width="144" height="144" viewBox="0 0 144 144" fill="none" xmlns="http://www.w3.org/2000/svg">
<g clip-path="url(#clip0_38_151)">
<path fill-rule="evenodd" clip-rule="evenodd" d="M137.952 83.7482C139.836 67.4094 140.338 50.9408 139.451 34.5177C139.719 31.1896 140.935 29.9475 136.51 27.3589C118.692 17.0508 87.3052 14.4174 77.6896 31.9561C76.7778 31.492 73.5353 27.3794 68.7862 23.2575C46.3762 4.09483 11.1404 20.1891 14.7974 25.3957C10.9654 39.8627 7.92352 54.5274 5.68525 69.325C4.41106 78.93 3.63458 88.5944 3.3589 98.2797C3.20292 100.221 3.00237 102.717 4.59711 104.408C4.93435 104.73 5.33722 104.975 5.77801 105.126C6.21881 105.277 6.68709 105.331 7.15066 105.284C7.72023 107.227 7.71474 103.822 6.79414 109.721C6.71009 121.885 26.858 112.226 43.9572 115.498C49.5383 117.713 54.7193 120.826 59.2949 124.714C63.23 126.539 67.5484 127.385 71.8813 127.179C76.2142 126.973 80.4329 125.721 84.1771 123.531C88.5823 120.814 86.5706 118.754 93.7691 116.709C102.727 113.257 112.583 112.909 121.762 115.72C123.093 115.827 127.073 119.106 129.876 115.479C131.881 112.577 133.436 109.39 134.488 106.024C136.523 105.015 136.357 103.606 137.952 83.7482ZM10.1559 69.9633C12.2749 54.706 15.1683 39.5662 18.8248 24.6027C21.5992 22.0343 41.7209 17.5658 55.1588 21.9393C62.5819 25.0682 69.3905 29.4902 75.2678 34.9994C71.3327 52.0893 69.2556 69.5544 69.0728 87.0905C69.0326 87.5907 69.1928 88.0864 69.518 88.4685C69.8433 88.8506 70.307 89.0878 70.8072 89.128C71.3074 89.1682 71.803 89.008 72.1851 88.6828C72.5672 88.3575 72.8045 87.8938 72.8447 87.3936C73.9123 79.6636 75.4881 71.8628 76.7356 63.9798C80.211 42.2633 77.1033 39.948 80.4447 33.7964C88.9614 18.1234 120.481 21.884 134.642 31.8424C134.014 33.4109 135.279 44.0639 134.156 59.4376C134.133 59.7149 132.083 80.3736 130.648 98.2345C124.171 96.1125 117.401 95.0222 110.586 95.0037C99.1396 94.0322 87.6518 96.3223 77.4527 101.609C77.009 101.573 74.0528 103.625 72.0133 104.689C62.3637 96.9548 50.4127 92.6553 38.0475 92.4694C29.228 91.7608 8.83049 98.2727 8.31344 98.4544C8.43508 88.932 9.05007 79.4222 10.1559 69.9633ZM125.671 110.842C114.938 105.458 90.9807 108.334 84.533 114.236C83.1414 115.576 78.8719 123.551 63.5412 119.807C50.8595 110.191 46.1833 107.247 32.1755 108.578C25.43 109.679 18.6254 110.381 11.7972 110.681C11.2882 108.602 10.6509 106.555 9.88893 104.554C26.6344 97.6375 37.5716 95.6133 54.7942 101.519C60.1223 103.221 64.9454 106.217 68.8319 110.239C72.476 114.217 79.1401 104.927 94.0537 102.049C103.864 100.158 123.387 101.057 129.529 104.509C129.531 105.179 126.259 109.773 125.671 110.842Z" fill="#FCFBFA"/>
<path d="M32.5938 40.838C38.2076 40.4517 38.0931 37.707 45.4705 38.2997C49.6502 38.9185 53.7249 40.11 57.5795 41.8406C58.7201 41.5415 59.5368 41.1046 59.617 40.1062C59.8131 37.6656 56.6256 34.9531 51.6027 33.5447C37.0664 29.6412 35.1137 36.5743 32.1867 37.5674C31.8061 37.6786 31.4776 37.9217 31.2599 38.2531C31.0422 38.5845 30.9495 38.9825 30.9985 39.376C31.0475 39.7694 31.2349 40.1326 31.5272 40.4005C31.8195 40.6684 32.1976 40.8235 32.5938 40.838Z" fill="#FCFBFA"/>
<path d="M30.9805 60.9177C36.5898 60.5868 36.4754 57.8421 43.8527 58.4348C48.0203 59.0637 52.0918 60.2162 55.9707 61.8648C57.1068 61.6212 57.9234 61.1843 58.0081 60.1304C58.2042 57.6898 55.0167 54.9773 49.9894 53.6243C35.4575 49.6655 33.5003 56.654 30.5734 57.6471C30.3317 57.6382 30.0911 57.6819 29.868 57.7752C29.6449 57.8685 29.4447 58.0092 29.2814 58.1874C29.118 58.3657 28.9953 58.5773 28.9218 58.8077C28.8482 59.038 28.8256 59.2816 28.8555 59.5216C28.8854 59.7615 28.967 59.9921 29.0948 60.1974C29.2225 60.4027 29.3934 60.5778 29.5955 60.7106C29.7975 60.8434 30.0261 60.9307 30.2652 60.9664C30.5044 61.0022 30.7484 60.9856 30.9805 60.9177Z" fill="#FCFBFA"/>
<path d="M29.3672 80.9974C34.9765 80.6665 34.8621 77.9218 42.2394 78.5145C46.407 79.1434 50.4785 80.2958 54.3574 81.9445C55.4935 81.7008 56.3102 81.264 56.3948 80.2101C56.5909 77.7695 53.4034 75.057 48.3761 73.704C33.8442 69.7451 31.8871 76.7337 28.9601 77.7267C28.7185 77.7179 28.4778 77.7616 28.2547 77.8549C28.0316 77.9482 27.8315 78.0888 27.6681 78.2671C27.5047 78.4454 27.382 78.657 27.3085 78.8874C27.2349 79.1177 27.2123 79.3613 27.2422 79.6013C27.2721 79.8412 27.3537 80.0718 27.4815 80.2771C27.6092 80.4824 27.7801 80.6575 27.9822 80.7903C28.1843 80.9231 28.4128 81.0103 28.6519 81.0461C28.8911 81.0819 29.1352 81.0652 29.3672 80.9974Z" fill="#FCFBFA"/>
<path d="M118.657 45.9663C113.172 44.7441 113.779 42.0573 106.402 41.4646C102.243 41.4557 98.0989 41.9474 94.058 42.9292C93.0309 42.5118 92.2389 41.9457 92.3236 40.8918C92.5197 38.4512 96.0994 36.2824 101.278 35.7494C116.256 34.1614 117.128 41.3773 119.858 42.8249C120.275 42.9842 120.611 43.3025 120.793 43.7097C120.975 44.117 120.988 44.5798 120.828 44.9964C120.669 45.4129 120.351 45.7492 119.944 45.9311C119.536 46.113 119.074 46.1257 118.657 45.9663Z" fill="#FCFBFA"/>
<path d="M117.044 66.046C111.56 64.8238 112.171 62.0816 104.793 61.4888C100.629 61.4516 96.4768 61.9627 92.4452 63.0089C91.4225 62.536 90.6262 62.0254 90.7108 60.9715C90.9069 58.5308 94.4866 56.3621 99.6432 56.1065C114.621 54.5185 115.497 61.6789 118.223 63.1819C118.462 63.4146 118.625 63.7131 118.692 64.0393C118.76 64.3654 118.728 64.7043 118.601 65.0122C118.474 65.3202 118.258 65.5832 117.981 65.7674C117.703 65.9516 117.377 66.0486 117.044 66.046Z" fill="#FCFBFA"/>
<path d="M115.43 86.1257C109.95 84.848 110.557 82.1612 103.18 81.5685C99.0147 81.5312 94.863 82.0423 90.8314 83.0886C89.8087 82.6156 89.0168 82.0496 89.097 81.0511C89.2931 78.6105 92.8728 76.4417 98.0561 75.8533C113.029 74.3208 113.905 81.4812 116.636 82.9288C117.06 83.0887 117.403 83.4105 117.59 83.8233C117.777 84.2362 117.792 84.7063 117.632 85.1302C117.472 85.5541 117.15 85.8972 116.737 86.0839C116.324 86.2706 115.854 86.2856 115.43 86.1257Z" fill="#FCFBFA"/>
</g>
<defs>
<clipPath id="clip0_38_151">
<rect width="133.554" height="133.554" fill="white" transform="translate(10.6963) rotate(4.59354)"/>
</clipPath>
</defs>
</svg>
