<svg width="336" height="186" viewBox="0 0 336 186" fill="none" xmlns="http://www.w3.org/2000/svg">
<path d="M335.674 93.698C336.902 85.6143 325.985 72.2844 320.105 65.0357C307.906 50.0253 300.269 43.5403 284.942 32.7266C272.081 23.6531 255.274 16.1957 241.21 11.5941C224.708 6.19273 209.088 3.35572 191.69 2.16362C164.55 0.307368 138.936 -1.24833 112.661 8.50048C87.8428 17.7063 65.4564 27.0153 42.8508 45.1711C27.855 57.2176 17.8392 65.7096 2.68408 85.4182C-4.44338 94.6839 7.60558 112.377 11.9855 118.934C18.5386 128.766 28.9929 138.076 37.7995 145.116C49.9303 154.809 62.4802 162.478 76.8213 167.628C103.606 177.246 152.857 189.753 191.619 183.619C224.881 178.358 263.632 162.862 291.191 139.859C302.393 130.508 311.935 122.142 322.305 111.54C326.22 107.54 328.113 105.534 332.29 100.484C333.427 99.102 335.305 96.1839 335.684 93.6908L335.674 93.698Z" fill="#BBC6B9"/>
<path d="M141.319 28.0642C107.811 39.4022 91.4246 65.6911 90.5907 89.2675C89.1398 130.244 136.702 161.886 175.206 158.358C249.412 151.546 255.505 53.3915 187.304 31.9335C177.263 28.7762 154.055 23.7644 141.317 28.0726L141.319 28.0642Z" fill="#528CFF"/>
<path d="M150.029 54.1639C130.066 60.9212 120.309 76.5807 119.807 90.6232C118.941 115.036 147.277 133.89 170.218 131.784C214.428 127.724 218.056 69.2489 177.426 56.4716C171.443 54.592 157.614 51.6064 150.028 54.1723L150.029 54.1639Z" fill="#1F453B"/>
</svg>
