<svg width="83" height="83" viewBox="0 0 83 83" fill="none" xmlns="http://www.w3.org/2000/svg">
<path d="M25.8558 65.0991C24.2071 69.7813 23.264 73.491 25.0876 78.1108C26.8425 82.5499 30.8769 83.6036 35.1798 82.7058C37.9901 82.1135 40.8878 80.1246 42.6427 77.8178V77.8178C43.9604 76.0833 47.2838 75.7278 49.0995 76.9312C51.8391 78.7471 55.1514 79.4471 58.5491 78.2729C62.0089 77.0759 63.3016 74.5509 63.9574 71.1405C64.1977 69.8922 64.4031 67.9769 64.3688 66.0255C64.3437 64.5989 67.9012 60.1046 69.3157 59.9181V59.9181C73.3376 59.4006 77.5156 59.0266 80.3259 55.7035C83.0113 52.5301 83.6171 48.8267 82.3993 44.824C81.5499 42.0309 78.827 38.3525 76.0979 37.1741C74.5616 36.5132 72.8442 35.9147 71.2017 35.603C70.8908 35.5438 70.5468 35.4893 70.183 35.4402C68.6578 35.2342 68.1149 33.6586 69.0159 32.4108V32.4108C70.24 30.7212 71.5327 28.7324 72.1198 26.7061C73.5749 21.6935 73.5062 16.6746 70.7084 12.1794C69.7404 10.6207 68.8036 9.2304 67.1362 8.50094C64.7255 7.44105 61.9902 7.16672 59.3797 7.38494C56.5525 7.61737 54.0769 8.7506 51.7188 10.1316C49.8821 11.2072 47.9936 10.2905 47.0893 8.36378V8.36378C46.2524 6.58067 45.1782 4.79132 43.7856 3.37606C41.912 1.46825 39.6076 -0.00312645 36.8972 0.0031082C34.3242 0.00934286 31.4639 -0.109111 28.9721 0.670221C25.4061 1.79246 21.7527 4.66039 20.5724 8.31389V8.31389C19.1416 12.7297 16.4078 16.8149 11.8049 17.4147C10.1655 17.6283 8.57279 18.0925 7.07665 19.0313C2.52394 21.8867 -0.454981 25.7959 0.0571207 31.2699C0.281946 33.6889 0.93768 35.7962 2.30536 37.6978C3.2234 38.9759 4.54737 40.2914 5.56533 41.476V41.476C6.73266 42.8313 6.81823 45.8601 5.9197 47.4067C4.4112 50.0033 3.71005 53.4735 3.60435 55.8843C3.49194 58.4343 3.91661 60.0677 5.6028 62.013C7.17657 63.8335 9.29368 65.573 11.492 66.5393C14.2648 67.7551 17.8058 68.0793 20.7598 67.3124C22.2523 66.9259 25.8495 65.0929 25.8495 65.0929" fill="#FF9375"/>
<path d="M33.7362 28.3832C27.6472 31.644 25.2678 37.3611 25.7986 42.0745C26.7104 50.2606 36.7526 55.1112 44.0282 53.247C58.0485 49.6559 56.3623 29.9731 42.6667 27.766C40.6495 27.4418 36.0594 27.1488 33.7424 28.3895" fill="#FAE370"/>
</svg>
