<svg width="164" height="150" viewBox="0 0 164 150" fill="none" xmlns="http://www.w3.org/2000/svg">
<path d="M158.541 18.7126C150.816 5.1862 136.328 0.0846608 120.606 2.76784C112.107 4.22257 104.676 8.26398 97.5852 13.0647C93.4028 15.8965 90.263 18.8019 86.7391 22.2925C84.9106 24.1021 83.8095 25.5015 82.2721 27.5764C80.8913 25.4418 79.8977 24.0094 78.2081 22.1273C74.953 18.5101 72.0372 15.486 68.0695 12.4975C61.3502 7.42998 54.2327 3.10449 45.855 1.32839C30.3523 -1.9607 15.5011 2.57799 6.76847 15.7867C-0.536382 26.84 -0.464861 38.9734 0.644123 50.9808C1.10337 55.9633 3.75869 61.5963 5.8114 66.043C7.96937 70.7127 9.9755 75.5918 12.5613 80.0134C20.0272 92.7755 26.9973 105.263 35.7513 117.191C40.3073 123.399 45.6948 128.892 51.144 134.334C54.0738 137.258 59.9846 142.66 64.2417 145.201C67.4642 147.127 73.7493 149.74 77.6768 149.816C81.5853 149.892 88.0776 147.525 91.4389 145.726C95.8747 143.355 102.895 138.858 105.797 136.186C111.811 130.652 116.955 123.732 121.972 117.71C131.609 106.138 139.523 95.0836 147.938 82.6262C150.856 78.3104 153.225 73.516 155.727 68.9351C158.111 64.5683 160.992 59.0126 162.019 54.0931C164.518 42.0914 165.008 30.0328 158.546 18.7125L158.541 18.7126Z" fill="#FF9375"/>
</svg>
