<svg width="321" height="289" viewBox="0 0 321 289" fill="none" xmlns="http://www.w3.org/2000/svg">
<path fill-rule="evenodd" clip-rule="evenodd" d="M3.5028 121.788C13.3573 152.499 44.0542 181.382 90.975 184.644C108.812 185.881 136.517 171.223 148.131 163.585C150.75 161.861 153.233 160.054 155.583 158.173C156.448 158.883 157.309 159.59 158.169 160.296C161.602 163.113 165.009 165.909 168.462 168.796C167.89 170.087 167.356 171.467 166.854 172.948L166.531 174.569C166.235 175.779 166.087 177.801 167.719 179.3C169.583 181.014 171.783 182.913 173.535 184.425C174.095 184.909 174.609 185.353 175.052 185.738C177.566 187.929 180.633 190.473 183.552 192.895C185.57 194.569 187.518 196.185 189.162 197.584C197.841 204.957 205.822 212.221 213.817 219.497C221.73 226.699 229.657 233.913 238.287 241.258C243.401 245.615 248.362 249.986 253.31 254.346C258.778 259.164 264.229 263.968 269.853 268.722C274.254 272.437 279.464 276.565 284.625 280.654C287.694 283.086 290.747 285.504 293.6 287.813C295.223 289.125 297.209 289.383 298.254 288.418C300.43 286.401 310.62 274.71 312.587 272.452C313.722 271.156 314.641 269.866 315.553 268.586C316.29 267.552 317.022 266.524 317.86 265.504C318.258 265.014 318.767 264.464 319.302 263.886C319.698 263.458 320.108 263.014 320.499 262.568C321.548 261.347 320.892 259.078 319.065 257.574C316.264 255.274 313.51 253.087 310.774 250.915C306.866 247.812 302.996 244.738 299.081 241.408C294.878 237.831 290.467 234.337 286.04 230.831C281.273 227.055 276.489 223.265 271.927 219.343C262.235 211.01 253.39 202.91 244.63 194.887C235.355 186.392 226.175 177.985 216.186 169.483C212.251 166.13 208.277 162.672 204.319 159.226C200.85 156.207 197.393 153.199 193.984 150.28C192.381 148.908 189.579 148.77 188.481 149.707C186.186 150.879 184.094 152.037 182.182 153.243C179.563 151.085 176.869 148.876 174.186 146.677L174.184 146.676L174.171 146.664C172.854 145.585 171.54 144.508 170.239 143.44C216.315 84.8214 171.644 -13.4018 85.5236 1.52366C35.1521 10.2619 -13.6502 68.4126 3.5028 121.788ZM23.7438 114.19C31.3331 137.865 55.0237 160.115 91.2658 162.595C105.043 163.535 126.455 152.212 135.432 146.313C196.406 106.214 162.197 8.34126 87.1914 21.3884C48.2748 28.1644 10.5336 73.0429 23.7438 114.19Z" fill="#528CFF"/>
</svg>
