<svg width="220" height="213" viewBox="0 0 220 213" fill="none" xmlns="http://www.w3.org/2000/svg">
<path d="M18.9372 39.6562C12.3296 41.6347 5.38331 48.7132 4.49395 55.8702C3.23428 65.9502 11.7962 69.3768 20.0574 72.8059C33.5908 78.4043 44.339 84.7335 52.2001 97.9581C65.4163 120.186 65.5757 139.683 59.5735 164.529C57.1366 174.598 51.8015 179.504 47.1017 188.689C43.4501 195.819 47.5917 205.361 56.1389 206.547C66.7824 208.035 78.0344 202.318 87.9915 199.642C102.84 195.646 117.305 190.239 132.384 187.128C148.112 183.882 163.984 180.169 179.546 176.266C189.409 173.79 203.371 171.83 211.073 164.76C220.899 155.742 211.591 145.408 205.618 142.406C198.554 138.863 191.821 136.411 187.166 134.022C171.514 125.989 160.842 109.827 155.827 93.3441C151.144 77.9515 153.056 66.5161 157.341 51.2886C159.254 44.4906 161.669 38.6571 164.888 32.4152C167.91 26.5305 169.452 15.8498 163.128 10.8729C155.241 4.68552 144.809 8.04789 137.714 9.49553C123.51 12.3938 111.747 16.3046 96.1457 20.6684C74.6056 26.6758 61.6961 29.4249 38.6708 34.522C35.648 35.1967 23.5741 38.2687 18.9372 39.6562" fill="#FAE370"/>
</svg>
